<?xml version="1.0" encoding="UTF-8"?>
<svg xmlns="http://www.w3.org/2000/svg" xmlns:xlink="http://www.w3.org/1999/xlink" width="220px" height="52px" viewBox="0 0 220 52" version="1.1">
<defs>
<linearGradient id="linear0" gradientUnits="userSpaceOnUse" x1="0.5" y1="1" x2="0.5" y2="0" gradientTransform="matrix(43.214844,0,0,43.324219,3.289063,4.261719)">
<stop offset="0" style="stop-color:rgb(8.235294%,29.019608%,11.372549%);stop-opacity:1;"/>
<stop offset="1" style="stop-color:rgb(82.745098%,84.705882%,80%);stop-opacity:1;"/>
</linearGradient>
<linearGradient id="linear1" gradientUnits="userSpaceOnUse" x1="0.5" y1="1" x2="0.5" y2="0" gradientTransform="matrix(15.785156,0,0,49.90625,20.113281,0.488281)">
<stop offset="0" style="stop-color:rgb(8.235294%,29.019608%,11.372549%);stop-opacity:1;"/>
<stop offset="1" style="stop-color:rgb(82.745098%,84.705882%,80%);stop-opacity:1;"/>
</linearGradient>
<linearGradient id="linear2" gradientUnits="userSpaceOnUse" x1="0.5" y1="1" x2="0.5" y2="0" gradientTransform="matrix(44.671875,0,0,44.300781,3.476563,3.710937)">
<stop offset="0" style="stop-color:rgb(8.235294%,29.019608%,11.372549%);stop-opacity:1;"/>
<stop offset="1" style="stop-color:rgb(82.745098%,84.705882%,80%);stop-opacity:1;"/>
</linearGradient>
<linearGradient id="linear3" gradientUnits="userSpaceOnUse" x1="0" y1="0.5" x2="1" y2="0.5" gradientTransform="matrix(50.636719,0,0,21.066406,0.0507813,13.738281)">
<stop offset="0" style="stop-color:rgb(82.745098%,84.705882%,80%);stop-opacity:1;"/>
<stop offset="1" style="stop-color:rgb(8.235294%,29.019608%,11.372549%);stop-opacity:1;"/>
</linearGradient>
</defs>
<g id="surface1">
<path style=" stroke:none;fill-rule:nonzero;fill:rgb(8.627451%,8.627451%,8.235294%);fill-opacity:1;" d="M 74.4375 17.570312 L 73.695312 14.859375 L 68.539062 14.859375 L 67.792969 17.570312 L 64.527344 17.570312 L 69.257812 1.539062 L 72.972656 1.539062 L 77.703125 17.570312 Z M 71.128906 5.535156 L 69.324219 12.039062 L 72.90625 12.039062 Z M 71.128906 5.535156 "/>
<path style=" stroke:none;fill-rule:nonzero;fill:rgb(8.627451%,8.627451%,8.235294%);fill-opacity:1;" d="M 79.953125 17.570312 L 79.953125 14.296875 L 83.214844 14.296875 L 83.214844 17.570312 Z M 79.953125 17.570312 "/>
<path style=" stroke:none;fill-rule:nonzero;fill:rgb(8.627451%,8.627451%,8.235294%);fill-opacity:1;" d="M 100.785156 17.570312 L 97.042969 11.25 L 95.941406 11.25 L 95.941406 17.570312 L 92.898438 17.570312 L 92.898438 1.539062 L 98.304688 1.539062 C 101.546875 1.539062 103.484375 2.941406 103.484375 6.394531 C 103.484375 9.058594 102.292969 10.503906 100.265625 11.023438 L 104.164062 17.570312 Z M 97.96875 4.25 L 95.941406 4.25 L 95.941406 8.539062 L 97.898438 8.539062 C 99.523438 8.539062 100.445312 8.042969 100.445312 6.394531 C 100.445312 4.746094 99.589844 4.25 97.96875 4.25 Z M 97.96875 4.25 "/>
<path style=" stroke:none;fill-rule:nonzero;fill:rgb(8.627451%,8.627451%,8.235294%);fill-opacity:1;" d="M 111.703125 17.796875 C 108.101562 17.796875 106.1875 15.675781 106.1875 11.925781 L 106.1875 7.183594 C 106.1875 3.4375 108.101562 1.3125 111.703125 1.3125 C 115.308594 1.3125 117.222656 3.4375 117.222656 7.183594 L 117.222656 11.925781 C 117.222656 15.675781 115.308594 17.796875 111.703125 17.796875 Z M 114.179688 7.410156 C 114.179688 5.535156 113.617188 4.136719 111.703125 4.136719 C 109.789062 4.136719 109.226562 5.535156 109.226562 7.410156 L 109.226562 11.699219 C 109.226562 13.574219 109.789062 14.972656 111.703125 14.972656 C 113.617188 14.972656 114.179688 13.574219 114.179688 11.699219 Z M 114.179688 7.410156 "/>
<path style=" stroke:none;fill-rule:nonzero;fill:rgb(8.627451%,8.627451%,8.235294%);fill-opacity:1;" d="M 120.371094 17.570312 L 120.371094 1.539062 L 123.414062 1.539062 L 123.414062 14.75 L 129.492188 14.75 L 129.492188 17.570312 Z M 120.371094 17.570312 "/>
<path style=" stroke:none;fill-rule:nonzero;fill:rgb(8.627451%,8.627451%,8.235294%);fill-opacity:1;" d="M 140.976562 17.570312 L 140.234375 14.859375 L 135.078125 14.859375 L 134.332031 17.570312 L 131.066406 17.570312 L 135.796875 1.539062 L 139.511719 1.539062 L 144.242188 17.570312 Z M 137.667969 5.535156 L 135.863281 12.039062 L 139.445312 12.039062 Z M 137.667969 5.535156 "/>
<path style=" stroke:none;fill-rule:nonzero;fill:rgb(8.627451%,8.627451%,8.235294%);fill-opacity:1;" d="M 154.261719 17.570312 L 149.308594 7.996094 L 149.308594 17.570312 L 146.265625 17.570312 L 146.265625 1.539062 L 149.308594 1.539062 L 154.261719 11.113281 L 154.261719 1.539062 L 157.304688 1.539062 L 157.304688 17.570312 Z M 154.261719 17.570312 "/>
<path style=" stroke:none;fill-rule:nonzero;fill:rgb(8.627451%,8.627451%,8.235294%);fill-opacity:1;" d="M 165.96875 17.570312 L 160.453125 17.570312 L 160.453125 1.539062 L 165.96875 1.539062 C 169.574219 1.539062 171.488281 3.664062 171.488281 7.410156 L 171.488281 11.699219 C 171.488281 15.449219 169.574219 17.570312 165.96875 17.570312 Z M 168.445312 7.636719 C 168.445312 5.761719 167.882812 4.363281 165.96875 4.363281 L 163.492188 4.363281 L 163.492188 14.75 L 165.96875 14.75 C 167.882812 14.75 168.445312 13.347656 168.445312 11.476562 Z M 168.445312 7.636719 "/>
<path style=" stroke:none;fill-rule:nonzero;fill:rgb(8.627451%,8.627451%,8.235294%);fill-opacity:1;" d="M 72.523438 39.890625 L 72.523438 33.117188 L 67.570312 33.117188 L 67.570312 39.890625 L 64.527344 39.890625 L 64.527344 23.859375 L 67.570312 23.859375 L 67.570312 30.292969 L 72.523438 30.292969 L 72.523438 23.859375 L 75.5625 23.859375 L 75.5625 39.890625 Z M 72.523438 39.890625 "/>
<path style=" stroke:none;fill-rule:nonzero;fill:rgb(8.627451%,8.627451%,8.235294%);fill-opacity:1;" d="M 84.230469 40.117188 C 80.625 40.117188 78.710938 37.992188 78.710938 34.246094 L 78.710938 29.503906 C 78.710938 25.753906 80.625 23.632812 84.230469 23.632812 C 87.832031 23.632812 89.75 25.753906 89.75 29.503906 L 89.75 34.246094 C 89.75 37.992188 87.835938 40.117188 84.230469 40.117188 Z M 86.707031 29.730469 C 86.707031 27.855469 86.144531 26.457031 84.230469 26.457031 C 82.316406 26.457031 81.753906 27.855469 81.753906 29.730469 L 81.753906 34.019531 C 81.753906 35.894531 82.316406 37.292969 84.230469 37.292969 C 86.144531 37.292969 86.707031 35.894531 86.707031 34.019531 Z M 86.707031 29.730469 "/>
<path style=" stroke:none;fill-rule:nonzero;fill:rgb(8.627451%,8.627451%,8.235294%);fill-opacity:1;" d="M 92.898438 39.890625 L 92.898438 23.859375 L 95.941406 23.859375 L 95.941406 37.066406 L 102.023438 37.066406 L 102.023438 39.890625 Z M 92.898438 39.890625 "/>
<path style=" stroke:none;fill-rule:nonzero;fill:rgb(8.627451%,8.627451%,8.235294%);fill-opacity:1;" d="M 108.957031 40.117188 C 107.453125 40.058594 105.960938 39.863281 104.496094 39.527344 L 104.496094 36.707031 C 105.910156 36.996094 107.335938 37.191406 108.777344 37.292969 C 110.488281 37.292969 111.140625 36.753906 111.140625 35.441406 L 111.140625 34.988281 C 111.140625 33.996094 110.375 33.613281 109.382812 33.273438 L 107.46875 32.640625 C 105.847656 32.097656 104.609375 31.039062 104.609375 28.667969 L 104.609375 28.101562 C 104.609375 24.894531 106.929688 23.632812 109.742188 23.632812 C 111.160156 23.667969 112.570312 23.835938 113.953125 24.128906 L 113.953125 26.882812 C 112.574219 26.660156 111.183594 26.519531 109.789062 26.453125 C 108.234375 26.453125 107.648438 27.019531 107.648438 28.101562 L 107.648438 28.441406 C 107.648438 29.1875 108.1875 29.59375 108.976562 29.863281 L 110.890625 30.496094 C 112.605469 31.0625 114.179688 31.964844 114.179688 34.761719 L 114.179688 35.441406 C 114.179688 38.964844 112.425781 40.117188 108.957031 40.117188 Z M 108.957031 40.117188 "/>
<path style=" stroke:none;fill-rule:nonzero;fill:rgb(8.627451%,8.627451%,8.235294%);fill-opacity:1;" d="M 123.367188 26.679688 L 123.367188 39.890625 L 120.328125 39.890625 L 120.328125 26.679688 L 116.316406 26.679688 L 116.316406 23.859375 L 127.355469 23.859375 L 127.355469 26.679688 Z M 123.367188 26.679688 "/>
<path style=" stroke:none;fill-rule:nonzero;fill:rgb(8.627451%,8.627451%,8.235294%);fill-opacity:1;" d="M 142.101562 40.117188 C 138.5 40.117188 136.585938 37.992188 136.585938 34.246094 L 136.585938 29.503906 C 136.585938 25.753906 138.5 23.632812 142.101562 23.632812 C 143.085938 23.660156 144.0625 23.765625 145.03125 23.949219 L 145.03125 26.75 C 145.03125 26.75 143.117188 26.523438 142.101562 26.523438 C 140.1875 26.523438 139.625 27.855469 139.625 29.730469 L 139.625 34.019531 C 139.625 35.894531 140.164062 37.226562 142.214844 37.226562 C 143.15625 37.191406 144.097656 37.109375 145.03125 36.976562 L 145.03125 39.800781 C 144.0625 39.980469 143.085938 40.085938 142.101562 40.117188 Z M 142.101562 40.117188 "/>
<path style=" stroke:none;fill-rule:nonzero;fill:rgb(8.627451%,8.627451%,8.235294%);fill-opacity:1;" d="M 152.796875 40.117188 C 149.195312 40.117188 147.28125 37.992188 147.28125 34.246094 L 147.28125 29.503906 C 147.28125 25.753906 149.195312 23.632812 152.796875 23.632812 C 156.402344 23.632812 158.316406 25.753906 158.316406 29.503906 L 158.316406 34.246094 C 158.316406 37.992188 156.402344 40.117188 152.796875 40.117188 Z M 155.277344 29.730469 C 155.277344 27.855469 154.710938 26.457031 152.796875 26.457031 C 150.882812 26.457031 150.320312 27.855469 150.320312 29.730469 L 150.320312 34.019531 C 150.320312 35.894531 150.882812 37.292969 152.796875 37.292969 C 154.710938 37.292969 155.277344 35.894531 155.277344 34.019531 Z M 155.277344 29.730469 "/>
<path style=" stroke:none;fill-rule:nonzero;fill:rgb(8.627451%,8.627451%,8.235294%);fill-opacity:1;" d="M 161.464844 39.890625 L 161.464844 23.859375 L 164.507812 23.859375 L 164.507812 37.066406 L 170.589844 37.066406 L 170.589844 39.890625 Z M 161.464844 39.890625 "/>
<path style=" stroke:none;fill-rule:nonzero;fill:rgb(8.627451%,8.627451%,8.235294%);fill-opacity:1;" d="M 173.289062 39.890625 L 173.289062 23.859375 L 176.328125 23.859375 L 176.328125 37.066406 L 182.410156 37.066406 L 182.410156 39.890625 Z M 173.289062 39.890625 "/>
<path style=" stroke:none;fill-rule:nonzero;fill:rgb(8.627451%,8.627451%,8.235294%);fill-opacity:1;" d="M 185.109375 39.890625 L 185.109375 23.859375 L 194.230469 23.859375 L 194.230469 26.679688 L 188.148438 26.679688 L 188.148438 30.292969 L 193.78125 30.292969 L 193.78125 33.117188 L 188.148438 33.117188 L 188.148438 37.070312 L 194.230469 37.070312 L 194.230469 39.890625 Z M 185.109375 39.890625 "/>
<path style=" stroke:none;fill-rule:nonzero;fill:rgb(8.627451%,8.627451%,8.235294%);fill-opacity:1;" d="M 202.222656 40.117188 C 198.460938 40.117188 196.707031 38.015625 196.707031 34.246094 L 196.707031 29.957031 C 196.707031 25.9375 198.753906 23.632812 202.675781 23.632812 C 204.25 23.640625 205.808594 23.914062 207.292969 24.445312 L 207.292969 27.15625 C 205.8125 26.785156 204.304688 26.550781 202.785156 26.457031 C 200.558594 26.457031 199.746094 27.789062 199.746094 29.957031 L 199.746094 34.019531 C 199.746094 36.097656 200.488281 37.292969 202.3125 37.292969 C 203.125 37.289062 203.933594 37.152344 204.703125 36.886719 L 204.703125 33.566406 L 202 33.566406 L 202 30.746094 L 207.742188 30.746094 L 207.742188 38.875 C 206.011719 39.675781 204.128906 40.097656 202.222656 40.117188 Z M 202.222656 40.117188 "/>
<path style=" stroke:none;fill-rule:nonzero;fill:rgb(8.627451%,8.627451%,8.235294%);fill-opacity:1;" d="M 210.890625 39.890625 L 210.890625 23.859375 L 220.015625 23.859375 L 220.015625 26.679688 L 213.933594 26.679688 L 213.933594 30.292969 L 219.5625 30.292969 L 219.5625 33.117188 L 213.933594 33.117188 L 213.933594 37.070312 L 220.015625 37.070312 L 220.015625 39.890625 Z M 210.890625 39.890625 "/>
<path style=" stroke:none;fill-rule:nonzero;fill:rgb(0%,0%,0%);fill-opacity:1;" d="M 118.125 50.386719 L 117.4375 50.386719 L 115.953125 45.277344 L 116.597656 45.277344 L 117.78125 49.4375 L 118.964844 45.277344 L 119.609375 45.277344 Z M 118.125 50.386719 "/>
<path style=" stroke:none;fill-rule:nonzero;fill:rgb(0%,0%,0%);fill-opacity:1;" d="M 125.015625 50.386719 L 124.328125 50.386719 L 123.238281 46.285156 L 122.148438 50.386719 L 121.457031 50.386719 L 120.1875 45.277344 L 120.832031 45.277344 L 121.832031 49.394531 L 122.878906 45.277344 L 123.59375 45.277344 L 124.640625 49.394531 L 125.640625 45.277344 L 126.285156 45.277344 Z M 125.015625 50.386719 "/>
<path style=" stroke:none;fill-rule:nonzero;fill:rgb(0%,0%,0%);fill-opacity:1;" d="M 128.730469 50.460938 C 128.289062 50.496094 127.851562 50.332031 127.546875 50.011719 C 127.238281 49.691406 127.09375 49.246094 127.148438 48.804688 L 127.148438 46.863281 C 127.128906 46.28125 127.421875 45.734375 127.921875 45.4375 C 128.417969 45.140625 129.039062 45.140625 129.539062 45.4375 C 130.035156 45.734375 130.332031 46.28125 130.308594 46.863281 L 130.308594 48.804688 C 130.367188 49.246094 130.21875 49.691406 129.914062 50.011719 C 129.605469 50.332031 129.171875 50.496094 128.730469 50.460938 Z M 129.699219 46.863281 C 129.738281 46.488281 129.5625 46.128906 129.246094 45.929688 C 128.929688 45.730469 128.527344 45.730469 128.210938 45.929688 C 127.894531 46.128906 127.71875 46.488281 127.761719 46.863281 L 127.761719 48.804688 C 127.722656 49.175781 127.898438 49.535156 128.214844 49.734375 C 128.53125 49.929688 128.929688 49.929688 129.246094 49.734375 C 129.558594 49.535156 129.738281 49.175781 129.699219 48.804688 Z M 129.699219 46.863281 "/>
<path style=" stroke:none;fill-rule:nonzero;fill:rgb(0%,0%,0%);fill-opacity:1;" d="M 134.472656 50.386719 L 133.828125 50.386719 L 135.296875 45.277344 L 135.945312 45.277344 Z M 134.472656 50.386719 "/>
<path style=" stroke:none;fill-rule:nonzero;fill:rgb(0%,0%,0%);fill-opacity:1;" d="M 142.007812 50.386719 L 142.007812 48.085938 L 140.070312 48.085938 L 140.070312 50.386719 L 139.460938 50.386719 L 139.460938 45.28125 L 140.070312 45.28125 L 140.070312 47.511719 L 142.007812 47.511719 L 142.007812 45.28125 L 142.621094 45.28125 L 142.621094 50.386719 Z M 142.007812 50.386719 "/>
<path style=" stroke:none;fill-rule:nonzero;fill:rgb(0%,0%,0%);fill-opacity:1;" d="M 146.675781 50.386719 L 146.367188 49.382812 L 144.433594 49.382812 L 144.125 50.386719 L 143.480469 50.386719 L 145.09375 45.277344 L 145.707031 45.277344 L 147.320312 50.386719 Z M 145.402344 46.265625 L 144.613281 48.804688 L 146.1875 48.804688 Z M 145.402344 46.265625 "/>
<path style=" stroke:none;fill-rule:nonzero;fill:rgb(0%,0%,0%);fill-opacity:1;" d="M 149.710938 50.386719 L 149.019531 50.386719 L 147.535156 45.277344 L 148.179688 45.277344 L 149.367188 49.4375 L 150.550781 45.277344 L 151.195312 45.277344 Z M 149.710938 50.386719 "/>
<path style=" stroke:none;fill-rule:nonzero;fill:rgb(0%,0%,0%);fill-opacity:1;" d="M 153.53125 50.460938 C 153.089844 50.496094 152.652344 50.332031 152.347656 50.011719 C 152.039062 49.6875 151.894531 49.246094 151.953125 48.804688 L 151.953125 46.863281 C 151.929688 46.28125 152.226562 45.734375 152.722656 45.4375 C 153.222656 45.140625 153.839844 45.140625 154.339844 45.4375 C 154.835938 45.734375 155.132812 46.28125 155.109375 46.863281 L 155.109375 48.804688 C 155.167969 49.246094 155.023438 49.691406 154.714844 50.011719 C 154.40625 50.332031 153.972656 50.496094 153.53125 50.460938 Z M 154.5 46.863281 C 154.539062 46.488281 154.363281 46.128906 154.046875 45.929688 C 153.730469 45.730469 153.328125 45.730469 153.011719 45.929688 C 152.695312 46.128906 152.519531 46.488281 152.5625 46.863281 L 152.5625 48.804688 C 152.523438 49.175781 152.699219 49.535156 153.015625 49.734375 C 153.332031 49.929688 153.730469 49.929688 154.046875 49.734375 C 154.363281 49.535156 154.539062 49.175781 154.5 48.804688 Z M 154.5 46.863281 "/>
<path style=" stroke:none;fill-rule:nonzero;fill:rgb(0%,0%,0%);fill-opacity:1;" d="M 159.277344 50.386719 L 158.628906 50.386719 L 160.101562 45.277344 L 160.746094 45.277344 Z M 159.277344 50.386719 "/>
<path style=" stroke:none;fill-rule:nonzero;fill:rgb(0%,0%,0%);fill-opacity:1;" d="M 167.921875 50.386719 L 167.921875 46.652344 L 166.699219 49.8125 L 166.089844 49.8125 L 164.871094 46.652344 L 164.871094 50.386719 L 164.257812 50.386719 L 164.257812 45.28125 L 164.941406 45.28125 L 166.398438 49.070312 L 167.847656 45.28125 L 168.53125 45.28125 L 168.53125 50.386719 Z M 167.921875 50.386719 "/>
<path style=" stroke:none;fill-rule:nonzero;fill:rgb(0%,0%,0%);fill-opacity:1;" d="M 172.589844 50.386719 L 172.28125 49.382812 L 170.351562 49.382812 L 170.042969 50.386719 L 169.394531 50.386719 L 171.011719 45.277344 L 171.617188 45.277344 L 173.230469 50.386719 Z M 171.320312 46.265625 L 170.527344 48.804688 L 172.101562 48.804688 Z M 171.320312 46.265625 "/>
<path style=" stroke:none;fill-rule:nonzero;fill:rgb(0%,0%,0%);fill-opacity:1;" d="M 175.625 50.386719 L 174.9375 50.386719 L 173.449219 45.277344 L 174.097656 45.277344 L 175.28125 49.4375 L 176.464844 45.277344 L 177.109375 45.277344 Z M 175.625 50.386719 "/>
<path style=" stroke:none;fill-rule:nonzero;fill:rgb(0%,0%,0%);fill-opacity:1;" d="M 179.445312 50.460938 C 179.003906 50.496094 178.566406 50.332031 178.261719 50.011719 C 177.953125 49.6875 177.808594 49.246094 177.867188 48.804688 L 177.867188 46.863281 C 177.851562 46.285156 178.148438 45.746094 178.644531 45.453125 C 179.136719 45.160156 179.753906 45.160156 180.25 45.453125 C 180.742188 45.746094 181.042969 46.285156 181.027344 46.863281 L 181.027344 48.804688 C 181.082031 49.246094 180.9375 49.691406 180.628906 50.011719 C 180.320312 50.332031 179.886719 50.496094 179.445312 50.460938 Z M 180.414062 46.863281 C 180.453125 46.492188 180.277344 46.128906 179.960938 45.929688 C 179.644531 45.734375 179.242188 45.734375 178.929688 45.929688 C 178.613281 46.128906 178.4375 46.492188 178.476562 46.863281 L 178.476562 48.804688 C 178.4375 49.175781 178.613281 49.539062 178.929688 49.738281 C 179.242188 49.933594 179.644531 49.933594 179.960938 49.738281 C 180.277344 49.539062 180.453125 49.175781 180.414062 48.804688 Z M 180.414062 46.863281 "/>
<path style=" stroke:none;fill-rule:nonzero;fill:rgb(0%,0%,0%);fill-opacity:1;" d="M 185.1875 50.386719 L 184.542969 50.386719 L 186.011719 45.277344 L 186.660156 45.277344 Z M 185.1875 50.386719 "/>
<path style=" stroke:none;fill-rule:nonzero;fill:rgb(0%,0%,0%);fill-opacity:1;" d="M 192.078125 50.4375 L 192.078125 50.871094 C 192.0625 50.980469 192.097656 51.089844 192.171875 51.167969 C 192.242188 51.25 192.351562 51.292969 192.457031 51.289062 C 192.667969 51.28125 192.875 51.257812 193.082031 51.222656 L 193.082031 51.742188 C 192.835938 51.792969 192.582031 51.824219 192.332031 51.828125 C 191.847656 51.828125 191.46875 51.582031 191.46875 50.855469 L 191.46875 50.445312 C 191.078125 50.40625 190.71875 50.207031 190.476562 49.898438 C 190.234375 49.589844 190.125 49.195312 190.175781 48.804688 L 190.175781 46.863281 C 190.152344 46.28125 190.449219 45.734375 190.949219 45.4375 C 191.445312 45.140625 192.066406 45.140625 192.5625 45.4375 C 193.0625 45.734375 193.359375 46.28125 193.335938 46.863281 L 193.335938 48.804688 C 193.386719 49.191406 193.28125 49.578125 193.046875 49.882812 C 192.808594 50.191406 192.460938 50.390625 192.078125 50.4375 Z M 192.726562 46.863281 C 192.765625 46.488281 192.589844 46.128906 192.273438 45.929688 C 191.957031 45.730469 191.554688 45.730469 191.238281 45.929688 C 190.921875 46.128906 190.746094 46.488281 190.785156 46.863281 L 190.785156 48.804688 C 190.75 49.175781 190.925781 49.535156 191.238281 49.734375 C 191.554688 49.929688 191.957031 49.929688 192.269531 49.734375 C 192.585938 49.535156 192.761719 49.175781 192.726562 48.804688 Z M 192.726562 46.863281 "/>
<path style=" stroke:none;fill-rule:nonzero;fill:rgb(0%,0%,0%);fill-opacity:1;" d="M 196.207031 50.460938 C 195.765625 50.496094 195.328125 50.332031 195.023438 50.011719 C 194.714844 49.6875 194.570312 49.246094 194.625 48.804688 L 194.625 45.28125 L 195.238281 45.28125 L 195.238281 48.804688 C 195.199219 49.175781 195.375 49.535156 195.691406 49.734375 C 196.003906 49.929688 196.40625 49.929688 196.722656 49.734375 C 197.035156 49.535156 197.210938 49.175781 197.175781 48.804688 L 197.175781 45.28125 L 197.785156 45.28125 L 197.785156 48.804688 C 197.839844 49.246094 197.695312 49.691406 197.390625 50.011719 C 197.082031 50.332031 196.648438 50.496094 196.207031 50.460938 Z M 196.207031 50.460938 "/>
<path style=" stroke:none;fill-rule:nonzero;fill:rgb(0%,0%,0%);fill-opacity:1;" d="M 199.078125 50.386719 L 199.078125 45.28125 L 201.625 45.28125 L 201.625 45.855469 L 199.6875 45.855469 L 199.6875 47.511719 L 201.480469 47.511719 L 201.480469 48.085938 L 199.6875 48.085938 L 199.6875 49.8125 L 201.625 49.8125 L 201.625 50.386719 Z M 199.078125 50.386719 "/>
<path style=" stroke:none;fill-rule:nonzero;fill:rgb(0%,0%,0%);fill-opacity:1;" d="M 203.765625 50.460938 C 203.34375 50.449219 202.929688 50.386719 202.523438 50.273438 L 202.523438 49.695312 C 202.910156 49.792969 203.308594 49.855469 203.707031 49.882812 C 204.253906 49.882812 204.640625 49.660156 204.640625 49.078125 L 204.640625 48.863281 C 204.640625 48.378906 204.390625 48.230469 203.957031 48.078125 L 203.492188 47.914062 C 202.925781 47.792969 202.53125 47.28125 202.558594 46.703125 L 202.558594 46.523438 C 202.546875 46.144531 202.699219 45.78125 202.980469 45.527344 C 203.261719 45.273438 203.640625 45.15625 204.015625 45.210938 C 204.410156 45.210938 204.800781 45.265625 205.179688 45.367188 L 205.179688 45.921875 C 204.800781 45.847656 204.417969 45.800781 204.03125 45.785156 C 203.484375 45.785156 203.167969 46.023438 203.167969 46.527344 L 203.167969 46.707031 C 203.167969 47.058594 203.414062 47.230469 203.742188 47.34375 L 204.203125 47.511719 C 204.835938 47.640625 205.28125 48.214844 205.25 48.863281 L 205.25 49.082031 C 205.25 50.09375 204.648438 50.460938 203.765625 50.460938 Z M 203.765625 50.460938 "/>
<path style=" stroke:none;fill-rule:nonzero;fill:rgb(0%,0%,0%);fill-opacity:1;" d="M 208 45.855469 L 208 50.386719 L 207.390625 50.386719 L 207.390625 45.855469 L 206.113281 45.855469 L 206.113281 45.28125 L 209.273438 45.28125 L 209.273438 45.855469 Z M 208 45.855469 "/>
<path style=" stroke:none;fill-rule:nonzero;fill:rgb(0%,0%,0%);fill-opacity:1;" d="M 212.714844 47.113281 L 212.714844 45.28125 L 213.398438 45.28125 L 213.398438 47.113281 Z M 212.714844 47.113281 "/>
<path style=" stroke:none;fill-rule:nonzero;fill:rgb(0%,0%,0%);fill-opacity:1;" d="M 214.617188 50.386719 L 214.617188 49.4375 C 214.617188 47.695312 216.628906 48.34375 216.628906 47.316406 L 216.628906 47.136719 C 216.628906 46.632812 216.3125 46.503906 215.765625 46.503906 C 215.382812 46.519531 214.996094 46.5625 214.617188 46.640625 L 214.617188 46.085938 C 214.996094 45.984375 215.386719 45.929688 215.78125 45.925781 C 216.707031 45.925781 217.238281 46.257812 217.238281 47.136719 L 217.238281 47.316406 C 217.238281 48.890625 215.230469 48.179688 215.230469 49.4375 L 215.230469 49.8125 L 217.238281 49.8125 L 217.238281 50.386719 Z M 214.617188 50.386719 "/>
<path style=" stroke:none;fill-rule:nonzero;fill:rgb(0%,0%,0%);fill-opacity:1;" d="M 219.164062 50.386719 L 219.164062 46.601562 L 218.03125 46.863281 L 218.03125 46.285156 L 219.164062 46 L 219.773438 46 L 219.773438 50.386719 Z M 219.164062 50.386719 "/>
<path style=" stroke:none;fill-rule:nonzero;fill:url(#linear0);" d="M 11.3125 4.261719 C 8 6.476562 5.253906 9.441406 3.289062 12.914062 C 6.410156 13.886719 15.339844 17.296875 24.5625 26.648438 C 33.289062 35.5 36.710938 44.03125 37.84375 47.585938 C 41.320312 45.609375 44.289062 42.847656 46.503906 39.511719 C 45.523438 36.269531 42.195312 27.378906 33.089844 18.144531 C 23.3125 8.230469 13.867188 4.992188 11.3125 4.261719 Z M 11.3125 4.261719 "/>
<path style=" stroke:none;fill-rule:nonzero;fill:url(#linear1);" d="M 20.183594 0.535156 C 21.546875 3.042969 25.796875 11.957031 25.71875 25.664062 C 25.644531 38.707031 21.695312 47.371094 20.113281 50.324219 C 23.460938 51.03125 26.914062 51.054688 30.269531 50.394531 C 31.835938 47.484375 35.820312 38.800781 35.898438 25.691406 C 35.976562 11.847656 31.636719 2.886719 30.320312 0.488281 C 26.972656 -0.175781 23.527344 -0.160156 20.1875 0.535156 Z M 20.183594 0.535156 "/>
<path style=" stroke:none;fill-rule:nonzero;fill:url(#linear2);" d="M 48.148438 14.226562 C 46.015625 9.878906 42.691406 6.234375 38.570312 3.710938 C 37.5 7.050781 34.039062 15.777344 24.953125 24.78125 C 15.582031 34.066406 6.570312 37.363281 3.476562 38.28125 C 5.898438 42.421875 9.4375 45.796875 13.683594 48.011719 C 17.113281 46.9375 25.765625 43.539062 34.746094 34.636719 C 43.289062 26.171875 46.863281 17.953125 48.148438 14.226562 Z M 48.148438 14.226562 "/>
<path style=" stroke:none;fill-rule:nonzero;fill:url(#linear3);" d="M 0.773438 19.1875 C -0.53125 24.363281 -0.179688 29.824219 1.777344 34.792969 C 5.410156 33.03125 13.644531 29.828125 25.449219 29.847656 C 37.097656 29.867188 45.261719 33.015625 48.957031 34.804688 C 50.921875 29.84375 51.277344 24.390625 49.976562 19.214844 C 46.949219 17.613281 38.332031 13.761719 25.433594 13.738281 C 12.386719 13.714844 3.703125 17.632812 0.773438 19.1875 Z M 0.773438 19.1875 "/>
</g>
</svg>
